<svg xmlns="http://www.w3.org/2000/svg" width="256" height="256" viewBox="0 0 100 100"><rect width="100" height="100" rx="20" fill="#223569"></rect><path fill="#fff" d="M36.35 36.19L37.87 63.22L32.26 63.22L31.94 51.64Q31.90 50.78 31.90 49.30L31.90 49.30Q31.90 47.35 32.02 45.50Q32.14 43.64 32.29 41.62L32.29 41.62L29.25 58.62L24.42 58.62L21.10 41.62Q21.53 46.10 21.53 49.69L21.53 49.69L21.49 51.76L21.30 63.22L15.80 63.22L17.32 36.19L23.91 36.19L26.91 53.67L29.76 36.19L36.35 36.19ZM59.09 36.19L59.09 53.51Q59.09 58.27 56.22 61.04Q53.35 63.81 48.21 63.81L48.21 63.81Q45.71 63.81 43.82 63.18Q41.93 62.56 40.06 61.27L40.06 61.27L42.47 57.33Q43.88 58.27 45.09 58.66Q46.30 59.05 47.86 59.05L47.86 59.05Q50.00 59.05 51.35 57.66Q52.69 56.28 52.69 53.55L52.69 53.55L52.69 40.87L44.42 40.87L44.42 36.19L59.09 36.19ZM84.20 55.30Q84.20 59.63 81.14 61.43Q78.08 63.22 73.09 63.22L73.09 63.22L64.12 63.22L64.12 36.19L72.70 36.19Q77.34 36.19 80.19 37.81Q83.03 39.43 83.03 43.10L83.03 43.10Q83.03 45.40 81.63 46.88Q80.23 48.36 78.08 48.91L78.08 48.91Q80.65 49.34 82.43 50.84Q84.20 52.34 84.20 55.30L84.20 55.30ZM76.60 43.76Q76.60 42.16 75.60 41.44Q74.61 40.72 72.46 40.72L72.46 40.72L70.51 40.72L70.51 47.00L72.70 47.00Q74.73 47.00 75.66 46.24Q76.60 45.48 76.60 43.76L76.60 43.76ZM77.61 55.03Q77.61 53.00 76.46 52.15Q75.31 51.29 73.13 51.29L73.13 51.29L70.51 51.29L70.51 58.54L72.85 58.54Q75.08 58.54 76.34 57.80Q77.61 57.06 77.61 55.03L77.61 55.03Z"></path></svg>